<svg width="70" height="56" viewBox="0 0 70 56" fill="none" xmlns="http://www.w3.org/2000/svg">
<g clip-path="url(#clip0_3571_28703)">
<path d="M7.00185 25.718C4.90095 25.5731 2.80004 25.4523 0.67499 25.3316C-0.00116359 25.2833 -0.218499 24.8728 0.192023 24.3174C0.67499 23.6412 1.18211 22.9651 1.66507 22.2889C1.88241 21.975 2.31708 21.9267 2.7276 21.9267C4.34554 21.9267 5.96348 21.9267 7.58142 21.9267C7.62971 21.9267 7.62971 21.9025 7.65386 21.8784C7.7746 21.3713 7.8712 20.84 8.01609 20.357C11.5659 8.18627 22.65 -0.265647 35.521 -1.51899e-05C43.9971 0.169023 52.0868 4.25009 57.1821 11.0116C61.0217 16.1311 62.9536 21.9508 62.9294 28.4709C62.9294 28.7607 62.9053 29.3161 62.857 30.1613C62.857 30.2096 62.8811 30.2096 62.9053 30.2337C65.0303 30.3786 67.1554 30.4993 69.2563 30.6442C69.9324 30.6925 70.1256 31.103 69.7392 31.6585C69.2563 32.3346 68.7492 33.0108 68.2662 33.6869C68.0972 33.9043 67.7591 34.0491 67.4451 34.0491C65.7306 34.0491 64.0161 34.0491 62.3016 34.0491C62.2774 34.0491 62.2774 34.0491 62.2533 34.0733C60.8768 39.9655 57.9307 44.94 53.4391 48.9728C46.3154 55.348 35.9316 57.6179 26.7793 54.7926C14.8018 51.0979 6.73622 40.0138 6.95356 27.4808C6.95356 27.2393 6.97771 26.6598 7.026 25.7663C7.05015 25.7421 7.05015 25.718 7.00185 25.718ZM47.5469 22.7236C44.6491 24.7279 41.7755 26.708 38.9018 28.6641C38.8535 28.7124 38.8535 28.7124 38.926 28.7365L58.8725 30.0164C58.8966 30.0164 58.9208 29.9922 58.9208 29.9681C58.9932 29.3402 59.0174 28.5916 58.9932 27.7706C58.9208 23.7137 57.9066 19.9707 55.9988 16.4692C53.7772 12.4122 50.5896 9.2488 46.3878 6.93056C42.838 4.97454 39.0467 3.98446 34.9898 3.96031C24.1713 3.91202 14.512 11.4463 11.7349 21.8784C11.7349 21.9025 11.7349 21.9267 11.7591 21.9267C11.7591 21.9267 11.7591 21.9267 11.7832 21.9267C23.5676 21.9267 35.3279 21.9267 47.1123 21.9267C47.2813 21.9267 47.402 21.9508 47.4745 21.975C47.7643 22.1199 47.8125 22.5304 47.5469 22.7236ZM22.4809 34.0008C22.0221 33.6869 22.2878 33.3488 22.6258 33.1074C25.4512 31.1513 28.2524 29.1953 31.0536 27.2635C31.1019 27.2393 31.1019 27.2152 31.0295 27.2152L11.0346 25.9836C11.0105 25.9836 10.9863 26.0077 10.9863 26.0319C10.0204 38.8305 19.1243 50.0595 31.8022 51.8465C32.6474 51.9672 33.565 52.0155 34.4585 52.0397C35.0864 52.0638 35.6901 52.0155 36.3179 51.9914C46.6776 51.4359 55.4434 43.9741 58.148 34.1216C58.148 34.0733 58.148 34.0733 58.0997 34.0733H22.6017C22.5775 34.0491 22.5292 34.025 22.4809 34.0008Z" fill="#E0E5EB"/>
</g>
<defs>
<clipPath id="clip0_3571_28703">
<rect width="69.9577" height="56" fill="white"/>
</clipPath>
</defs>
</svg>
