<svg width="66" height="48" viewBox="0 0 66 48" fill="none" xmlns="http://www.w3.org/2000/svg">
<g clip-path="url(#clip0_3571_28767)">
<path d="M58.8835 31.0853C60.1609 29.1218 60.847 26.969 60.918 24.6033C61.2492 14.5964 55.3822 8.42191 46.8657 4.44754C46.8421 4.42388 46.8184 4.40023 46.8421 4.37657L48.1669 2.48401C48.2142 2.4367 48.2615 2.41304 48.3088 2.4367C55.7134 4.92068 62.2428 10.3381 64.7267 17.8137C66.6903 23.7516 65.7203 29.9261 62.3374 35.1306C61.7933 35.9586 61.2255 36.5737 60.1373 36.5737C48.6873 36.5737 37.2373 36.5737 25.7874 36.5974C22.2625 36.5974 17.8623 35.1306 17.4364 31.0143C17.1052 27.7023 19.1397 24.5323 20.9613 21.93C25.1959 15.8975 29.5725 9.95961 34.0436 4.09269C34.2802 3.78514 34.3985 3.50126 34.3748 3.28835C34.3512 2.72058 33.7598 2.57864 33.263 2.57864C25.9056 2.69692 18.2644 4.58948 12.4921 9.39185C7.26395 13.7447 4.14123 20.3214 5.34773 27.1819C7.02738 36.8576 15.0471 42.6299 24.297 44.3569C34.1619 46.2021 46.9604 45.2558 54.8381 38.277C54.8854 38.2297 54.9564 38.206 55.0274 38.206H59.8771C59.9717 38.206 59.9717 38.2297 59.9244 38.3007C50.9347 48.1183 34.6587 49.2775 22.5227 47.0537C12.2083 45.1612 2.48524 38.9631 0.403425 27.9626C-0.25897 24.5796 -0.0697145 21.2913 0.947535 18.0503C4.02294 8.32729 13.2255 2.74424 22.7356 0.946308C29.9746 -0.425797 37.19 -0.307512 44.3817 1.27751C45.5173 1.53773 46.4162 2.50767 45.5409 3.59589C39.3428 11.4263 33.1447 19.2568 28.2477 27.9862C27.538 29.2401 27.8928 31.1799 29.6434 31.1799C39.3428 31.1563 49.0658 31.1326 58.8125 31.1326C58.8125 31.1563 58.8598 31.1326 58.8835 31.0853Z" fill="#E0E5EB"/>
</g>
<defs>
<clipPath id="clip0_3571_28767">
<rect width="65.7427" height="48" fill="white"/>
</clipPath>
</defs>
</svg>
