<svg width="56" height="56" viewBox="0 0 56 56" fill="none" xmlns="http://www.w3.org/2000/svg">
<g clip-path="url(#clip0_3571_28707)">
<path d="M56 28.0105C56 43.4784 43.4573 56.021 27.9895 56.021C12.5427 56 0 43.4784 0 28.0105C0 12.5427 12.5427 0 28.0105 0C43.4784 0 56 12.5427 56 28.0105ZM53.4957 28.0105C53.4957 13.9316 42.0684 2.52537 28.0105 2.52537C13.9526 2.52537 2.52537 13.9316 2.52537 28.0105C2.52537 42.0894 13.9316 53.4957 28.0105 53.4957C42.0894 53.4957 53.4957 42.0684 53.4957 28.0105Z" fill="#E0E5EB"/>
<path d="M33.5453 9.02817L28.0316 21.2762C28.0316 21.2972 28.0106 21.2972 27.9895 21.2972C27.9895 21.2972 27.9895 21.2972 27.9685 21.2762L22.4337 9.00712C22.4337 8.98608 22.4337 8.96503 22.4548 8.94399C26.1376 7.9128 29.8204 7.9128 33.5032 8.94399C33.5453 8.94399 33.5664 8.98608 33.5453 9.02817Z" fill="#E0E5EB"/>
<path d="M31.3789 27.4213L38.6183 11.301C38.6393 11.28 38.6603 11.2589 38.6814 11.28C40.7438 12.6058 42.5115 14.2683 43.9636 16.2465C43.9847 16.2886 44.0057 16.3307 43.9847 16.3728L34.8933 36.4915C34.8933 36.5126 34.8723 36.5126 34.8513 36.5126L34.8302 36.4915L31.3578 28.7471C31.3368 28.726 31.3157 28.705 31.2947 28.705H24.7287C24.6867 28.705 24.6446 28.726 24.6235 28.7681L21.1511 36.4915C21.1511 36.5126 21.1301 36.5126 21.109 36.5126C21.109 36.5126 21.088 36.5126 21.088 36.4915L12.0177 16.3517C11.9967 16.3096 11.9967 16.2676 12.0388 16.2255C13.4909 14.2473 15.2586 12.6058 17.321 11.28C17.342 11.2589 17.3841 11.28 17.3841 11.301L24.6446 27.4213C24.6446 27.4423 24.6867 27.4633 24.7077 27.4633H31.3157C31.3578 27.4633 31.3789 27.4423 31.3789 27.4213Z" fill="#E0E5EB"/>
<path d="M19.0886 45.7302C15.0691 43.6468 12.0807 40.5953 10.1236 36.5968C8.10326 32.451 7.57714 27.4213 8.81878 22.9388C8.83983 22.8756 8.86087 22.8756 8.88192 22.9388L19.1307 45.6881C19.1517 45.7512 19.1307 45.7723 19.0886 45.7302Z" fill="#E0E5EB"/>
<path d="M36.8914 45.6881L47.1401 23.0019C47.1612 22.9387 47.2033 22.9387 47.2033 23.0019C49.5182 32.0722 45.3093 41.4791 36.9335 45.7302C36.8703 45.7512 36.8703 45.7512 36.8914 45.6881Z" fill="#E0E5EB"/>
<path d="M22.5391 47.0139L27.9897 34.9343C27.9897 34.9132 28.0108 34.9132 28.0318 34.9132C28.0318 34.9132 28.0529 34.9132 28.0529 34.9343L33.5034 47.035C33.5034 47.056 33.5034 47.0771 33.4824 47.0771C29.8627 48.0872 26.222 48.0872 22.6023 47.0771C22.5391 47.0771 22.5181 47.056 22.5391 47.0139Z" fill="#E0E5EB"/>
</g>
<defs>
<clipPath id="clip0_3571_28707">
<rect width="56" height="56" fill="white"/>
</clipPath>
</defs>
</svg>
