<svg width="56" height="56" viewBox="0 0 56 56" fill="none" xmlns="http://www.w3.org/2000/svg">
<g clip-path="url(#clip0_3571_28692)">
<path d="M6.96705 46.421C-1.58478 36.6411 -2.38861 22.3732 5.24775 11.7448C13.6433 0.0446329 29.3626 -3.48328 41.8666 3.68419C47.9846 7.18977 52.4503 12.8166 54.6608 19.4481C54.6832 19.4928 54.6832 19.5375 54.7055 19.5821C55.353 21.681 55.7773 23.8469 55.9336 26.0351C56.916 39.6555 47.6943 52.0255 34.4981 55.2185C30.7916 56.1116 26.8618 56.2009 23.1106 55.5534C22.4631 55.4418 21.7262 55.2408 21.034 55.0845C20.7214 55.0175 20.4312 54.9282 20.2079 54.8612C14.916 53.2982 10.5173 50.4848 6.96705 46.421ZM28.4248 28.6922L50.2398 40.9505C50.2844 40.9729 50.3291 40.9729 50.3514 40.9282L50.3737 40.9059C50.3961 40.8835 50.3737 40.8612 50.3737 40.8389L31.2159 26.7496C31.1712 26.7272 31.1712 26.7049 31.2159 26.6826L32.4886 25.9457C32.5556 25.9011 32.6226 25.9234 32.6672 25.9681L50.0611 40.236C50.0835 40.2583 50.1281 40.2583 50.1281 40.236C53.1648 34.5646 54.1026 27.9776 52.4726 21.7257C49.6146 10.6284 39.8793 3.12597 28.5364 2.6794C28.4918 2.6794 28.4694 2.70173 28.4694 2.74639L32.1313 25.0303C32.1313 25.0749 32.1313 25.0973 32.0867 25.1196L28.4248 27.2855C28.4025 27.2855 28.3801 27.2855 28.3801 27.2631V27.2408L28.0899 2.25516C28.0899 2.2105 28.0675 2.18817 28.0229 2.18817H27.9782C27.9336 2.18817 27.9112 2.2105 27.9112 2.25516L25.2765 25.8564C25.2765 25.8788 25.2541 25.8788 25.2541 25.8788L23.9367 25.1419C23.8921 25.1196 23.8698 25.0749 23.8698 25.0079L27.5763 2.79104C27.5763 2.74639 27.5763 2.72406 27.5316 2.72406C26.4375 2.76872 25.656 2.81337 25.1425 2.85803C13.5986 4.26473 4.46625 13.1961 2.92558 24.74C2.21107 30.0765 3.37215 35.4131 5.82829 40.169C5.85062 40.1914 5.87295 40.2137 5.91761 40.1914L23.3339 25.9011C23.3785 25.8788 23.4009 25.8564 23.4455 25.9011L24.7629 26.6603C24.8076 26.6826 24.8076 26.7049 24.7629 26.7496L5.67199 40.7719C5.62734 40.8166 5.60501 40.8612 5.62734 40.9282L5.64967 40.9729C5.67199 40.9952 5.69432 41.0175 5.71665 41.0175L27.5093 28.7368C27.5316 28.7368 27.5316 28.7368 27.554 28.7368C27.554 28.7368 27.554 28.7368 27.554 28.7591L27.5093 33.0462C27.5093 33.0909 27.487 33.1132 27.4423 33.1355L6.36418 41.0398C6.29719 41.0622 6.27487 41.1068 6.31952 41.1738C10.5619 48.118 18.042 52.7177 26.2143 53.2312C28.2015 53.3652 30.1218 53.2759 31.975 52.9633C35.6369 52.3604 38.9862 51.0207 42.0452 48.9665C45.1042 46.9123 47.605 44.2998 49.5476 41.1515C49.5699 41.1292 49.5476 41.0845 49.5253 41.0622L28.4471 33.1355C28.4025 33.1132 28.4025 33.0909 28.4025 33.0462L28.3355 28.7591C28.3801 28.6698 28.4025 28.6698 28.4248 28.6922Z" fill="#E0E5EB"/>
<path d="M26.5939 26.6826L27.7103 8.37316C27.7103 8.35083 27.7326 8.35083 27.7326 8.35083H27.7996C27.8219 8.35083 27.8219 8.37316 27.8219 8.37316L27.5987 27.2631C27.5987 27.2854 27.5763 27.2854 27.5763 27.2854C27.5763 27.2854 27.5763 27.2854 27.554 27.2854L26.5939 26.6826Z" fill="#E0E5EB"/>
<path d="M28.8493 27.9777L30.0327 27.3078H30.055L46.3325 38.2488L46.3549 38.2711V38.3381C46.3549 38.3604 46.3325 38.3604 46.3325 38.3604L28.8939 28.0223C28.827 28.0223 28.827 28 28.8493 27.9777Z" fill="#E0E5EB"/>
<path d="M27.174 28.0223C25.3878 29.0941 23.5568 30.1212 21.7929 31.2153H21.7705L21.7482 31.193C21.7259 31.1706 21.7482 31.1483 21.7482 31.1483L26.2139 27.4864C26.2362 27.4641 26.2586 27.4641 26.3032 27.4864L27.174 27.9776C27.1964 28 27.1964 28 27.174 28.0223Z" fill="#E0E5EB"/>
</g>
<defs>
<clipPath id="clip0_3571_28692">
<rect width="56" height="56" fill="white"/>
</clipPath>
</defs>
</svg>
