<svg width="75" height="48" viewBox="0 0 75 48" fill="none" xmlns="http://www.w3.org/2000/svg">
<g clip-path="url(#clip0_3571_28722)">
<path d="M36.4601 0H38.5388C42.1706 0.118343 45.7306 0.473373 49.2907 1.2071C55.0011 2.39053 60.6637 4.61538 65.4184 8C69.1696 10.6746 72.5624 14.3669 74.0677 18.7692C77.2215 28.0473 71.5828 36.213 63.9609 40.9941C58.9673 44.142 53.2569 46.1302 47.4509 47.1479C38.491 48.7101 29.125 48.213 20.4519 45.4201C17.0591 44.3314 13.8574 42.8166 10.8469 40.8994C4.56304 36.8757 -0.765095 30.3432 0.0711586 22.4615C0.764054 15.7633 5.54265 10.4852 11.038 7.02959C18.0387 2.60355 26.5207 0.473373 34.7637 0.118343C35.3372 0.0473373 35.9106 0.0236686 36.4601 0ZM42.0272 3.00592C37.0814 2.65089 31.9683 2.8639 27.0941 3.76331C25.111 4.11834 23.1995 4.66272 21.312 5.37278C19.3289 6.13018 16.1272 7.69231 15.6494 10.0118C14.9087 13.6331 21.0014 15.8817 23.5579 16.5917C25.4216 17.1124 27.1658 17.4911 28.7666 17.7278C28.7905 17.7278 28.8144 17.7278 28.8144 17.6805C29.3161 14.3669 30.2002 11.0296 31.801 8.04734C33.0434 5.72781 35.3133 2.91124 38.3716 3.57396C40.952 4.14201 42.7679 7.05325 43.7475 9.25444C44.9421 11.929 45.6828 14.7929 46.1129 17.6805C46.1129 17.7041 46.1368 17.7278 46.1607 17.7278C48.0721 17.4438 49.9358 17.0177 51.7755 16.4734C54.1887 15.7396 57.3426 14.5089 58.8001 12.3787C59.9708 10.6509 59.1584 8.85207 57.701 7.64497C56.4108 6.57988 54.8099 5.77515 53.1852 5.2071C49.6491 3.92899 45.8023 3.26627 42.0272 3.00592ZM32.3505 18.1302C35.7672 18.4142 39.2556 18.4379 42.6484 18.1302C42.6723 18.1302 42.6962 18.1065 42.6962 18.0828C42.3617 15.8343 41.7644 13.5621 40.6653 11.5503C40.0202 10.3432 38.7778 8.85207 37.2008 9.04142C35.2416 9.27811 33.9514 12.071 33.3779 13.6805C32.8762 15.1243 32.5178 16.5917 32.3028 18.0828C32.3028 18.1302 32.3267 18.1302 32.3505 18.1302ZM10.1062 35.1716C16.3423 41.9172 26.0906 45.1124 35.0743 45.5621C35.1221 45.5621 35.1221 45.5621 35.0743 45.5385C32.7806 44 31.347 41.1361 30.4391 38.6035C28.7905 33.9172 28.2171 28.8284 28.3126 23.858C28.3126 23.8343 28.2887 23.8106 28.2649 23.8106C23.773 23.0769 19.3767 21.9172 15.3865 19.6923C12.5194 18.1065 9.55666 15.5976 9.26995 12.0947C9.26995 12.071 9.24605 12.0473 9.22216 12.0947C7.43019 14.2959 6.06829 16.8284 5.42318 19.5976C4.15686 25.3491 6.13997 30.8876 10.1062 35.1716ZM65.7051 12.0947C65.2989 17.4201 58.585 20.5917 54.2126 22.0118C51.7755 22.8166 49.2668 23.4083 46.7102 23.787C46.6863 23.787 46.6624 23.8106 46.6624 23.8343C46.758 27.7396 46.3757 31.6686 45.4678 35.4793C44.8466 38.0355 43.8909 40.6627 42.4334 42.8876C41.7405 43.9527 40.9042 44.8284 39.9246 45.5148C39.9007 45.5148 39.9007 45.5385 39.9246 45.5385C47.0686 45.2071 54.2365 43.1716 60.2097 39.1716C66.0396 35.2663 70.5793 28.9467 69.8864 21.6568C69.5519 18.1065 68.0227 14.7929 65.7529 12.0473C65.729 12.0473 65.7051 12.0473 65.7051 12.0947ZM31.8966 24.284C31.9444 27.7633 32.47 31.503 33.8797 34.6982C34.5248 36.142 35.9345 38.3669 37.822 38.0828C39.7574 37.7988 41.0715 35.0532 41.621 33.4438C42.6245 30.4142 43.0546 27.3846 43.1024 24.2604C43.1024 24.2367 43.1024 24.2367 43.0785 24.2367C39.3751 24.568 35.6717 24.5444 31.9683 24.2367C31.9205 24.2367 31.9205 24.2367 31.8966 24.284C31.8966 24.2604 31.8966 24.2604 31.8966 24.284Z" fill="#E0E5EB"/>
</g>
<defs>
<clipPath id="clip0_3571_28722">
<rect width="75" height="48" fill="white"/>
</clipPath>
</defs>
</svg>
